<svg id="Layer_1" xmlns="http://www.w3.org/2000/svg" viewBox="0 0 347.4 141.6"><defs><style>.cls-1{fill:#3573f6;}.cls-1,.cls-2,.cls-3{stroke-width:0px;}.cls-2{fill:#0f1bf5;}.cls-3{fill:#03004a;}</style></defs><polygon class="cls-3" points="0 70.8 70.8 141.6 70.8 70.8 0 70.8"></polygon><polygon class="cls-1" points="70.8 0 70.8 70.8 141.6 70.8 70.8 0"></polygon><polygon class="cls-2" points="70.8 70.8 70.8 141.6 141.6 70.8 70.8 70.8"></polygon><path class="cls-1" d="M156.5,89.7v-35.3h26v6.8h-17.2v6.5h16v6.8h-16v8.3h18.7v6.8l-27.5.1h0Z"></path><path class="cls-1" d="M210.4,89.7h-7.4v-2.6h-.1c-1.3,1.6-3.6,3.3-7.1,3.3-6.4,0-11.4-4.1-11.6-13.7-.1-10.5,5.9-14.1,11.2-14.1,2.1,0,5,.4,7.2,2.8v-11h7.7l.1,35.3h0ZM197.3,68.3c-3.7,0-5.3,3.2-5.3,8.2,0,4.3,1,8.2,5.3,8.2,4,0,5.4-3.7,5.4-8.8,0-4.7-1.4-7.6-5.4-7.6Z"></path><path class="cls-1" d="M220.7,78.1c.1,5.1,3.3,6.7,5.8,6.7,2.9,0,4.2-1.5,6.5-4.7l5.8,3c-2.7,5-6.9,7.3-12.8,7.3-8.2,0-13-5.7-13-13.1,0-9.3,4.9-14.7,13-14.7,9.6,0,12.9,7.4,13,15.5h-18.3ZM231.1,73.3c-.2-3.9-3-5.1-5.3-5.1s-4.9,1.6-5.3,5.1h10.6Z"></path><path class="cls-1" d="M241.7,89.7v-35.3h7.7v35.3h-7.7Z"></path><path class="cls-1" d="M253.8,63.3h7.7v2.3c2-2.3,5.3-3,7.6-3,3,0,5.3,1.2,7,3.5,2.5-2.6,5.4-3.5,8.5-3.5,2.6,0,8.1.9,8.1,7v20.2h-7.8v-15.5c0-3.7-1-5.4-4-5.4-2.6,0-3.9,1.9-3.9,4.6v16.2h-7.7v-16.5c0-2.6-.8-4.3-3.8-4.3s-4.1,2-4.1,4.4v16.4h-7.7l.1-26.4h0Z"></path><path class="cls-1" d="M319.5,84.2c0,1.8,0,3.9.7,5.5h-7.2c-.3-.9-.5-1.8-.5-2.7h-.1c-1.3,2.1-5.2,3.4-7.9,3.4-5.1,0-8.8-2.8-8.8-7.8,0-6.3,5.1-8.6,13.5-9.8l2.8-.4v-2.2c0-2-1.6-2.8-3.7-2.8-2.5,0-3.7.9-4.1,3.5h-7.5c.2-7.6,7.3-8.3,10.9-8.3,7.2,0,11.7,1.7,11.8,7.6l.1,14h0ZM312,76.9l-5.2,1.5c-1.9.6-3.7,1.3-3.7,3.4s1.7,3,3.6,3c3,0,5.3-2,5.3-6.1v-1.8h0Z"></path><path class="cls-1" d="M324,63.3h7.7v2.3c2-2.3,5.3-3,7.6-3,6.2,0,8,3.6,8,7.6v19.5h-7.8v-16.5c0-2.6-.8-4.3-3.8-4.3s-4.1,2-4.1,4.4v16.4h-7.6v-26.4h0Z"></path></svg>